<?xml version="1.0" encoding="utf-8"?>
<!-- Generator: Adobe Illustrator 27.4.1, SVG Export Plug-In . SVG Version: 6.00 Build 0)  -->
<svg version="1.1" id="Layer_1" xmlns="http://www.w3.org/2000/svg" xmlns:xlink="http://www.w3.org/1999/xlink" x="0px" y="0px"
	 viewBox="0 0 557.49 145.63" style="enable-background:new 0 0 557.49 145.63;" xml:space="preserve">
<style type="text/css">
	.st0{fill-rule:evenodd;clip-rule:evenodd;fill:#FFFFFF;}
	.st1{fill:#FF0000;}
	.st2{fill:#85DDFF;}
	.st3{clip-path:url(#SVGID_00000163782590463101993660000002096229611780748427_);}
	.st4{fill:#009FE3;}
	.st5{fill:#FFFFFF;}
	.st6{fill:#1D1D1B;}
	.st7{fill:none;}
	.st8{fill:#1DC5FF;}
</style>
<g>
	<g>
		<path class="st0" d="M104.02,77.44v15.23c0,2.15-1.75,3.91-3.91,3.91H84.95c-2.05,0-3.75,1.59-3.9,3.62v4.06
			c0,2.15-1.75,3.91-3.91,3.91h-7.59c-2.15,0-3.91-1.75-3.91-3.91v-7.59c0-2.15,1.75-3.91,3.91-3.91h3.66l0.08-0.01
			c1.97,0,3.61-1.46,3.88-3.37V73.74c0-2.14,1.75-3.91,3.91-3.91h15.9c1.66-0.29,2.96-1.63,3.19-3.31V43.05
			c0-2.15,1.75-3.91,3.91-3.91h26.59c2.15,0,3.91,1.75,3.91,3.91v26.78c0,2.15-1.75,3.91-3.91,3.91h-23.09
			C105.63,73.91,104.11,75.49,104.02,77.44"/>
		<g id="XMLID_00000137095350533835815650000003466306646797238693_">
			<g id="XMLID_00000160167884466530392370000012336008017886385282_">
				<path class="st1" d="M53.59,102.21c0,8.08,0,12.58,2.93,15.51c2.93,2.93,7.43,2.93,15.51,2.93h55.33c8.08,0,12.58,0,15.51-2.93
					c2.93-2.93,2.93-7.42,2.93-15.51V46.88c0-8.08,0-12.58-2.93-15.51s-7.43-2.93-15.51-2.93H72.04c-8.08,0-12.58,0-15.51,2.93
					c-2.93,2.93-2.93,7.43-2.93,15.51V102.21z"/>
				<path id="XMLID_00000047767254252987933590000012039059147552122754_" class="st0" d="M107.65,82.49
					c-4.39,4.39-11.5,4.39-15.89,0c-4.39-4.39-4.39-11.5,0-15.89c4.39-4.39,11.5-4.39,15.89,0S112.04,78.1,107.65,82.49
					 M132.48,66.35L107.9,41.76c-3.59-3.59-5.59-5.59-8.19-5.59c-2.61,0-4.6,2-8.19,5.59L66.93,66.35
					c-3.59,3.59-5.59,5.59-5.59,8.19c0,2.61,2,4.6,5.59,8.19l24.58,24.58c3.59,3.59,5.59,5.59,8.19,5.59c2.61,0,4.6-2,8.19-5.59
					l24.58-24.58c3.59-3.59,5.59-5.59,5.59-8.19C138.07,71.94,136.07,69.94,132.48,66.35z"/>
			</g>
		</g>
	</g>
	<path class="st2" d="M126.3,48.84c-1.52,0-2.41-0.81-2.46-0.86l0.69-0.73l-0.34,0.36l0.34-0.37c0.06,0.05,1.52,1.34,3.99-0.07
		l0.5,0.87c-1.04,0.59-1.95,0.79-2.7,0.79L126.3,48.84z"/>
	<path class="st2" d="M127.88,50.12c-0.04-0.07-1-1.76-3.79-1.24l-0.19-0.98c3.55-0.67,4.81,1.66,4.86,1.76L127.88,50.12
		L127.88,50.12z"/>
	<g>
		<defs>
			<rect id="SVGID_1_" x="53.6" y="20.58" width="92.15" height="103.59"/>
		</defs>
		<clipPath id="SVGID_00000098937369928996962200000013879017491033304722_">
			<use xlink:href="#SVGID_1_"  style="overflow:visible;"/>
		</clipPath>
		<g style="clip-path:url(#SVGID_00000098937369928996962200000013879017491033304722_);">
			<g>
				<path class="st4" d="M35.63,46.33c0.71,0.72,4.81,15.97,15.34,15.97s40.66-23.33,51.54-23.69s20.51,4.13,22.47,7.72
					s-3.57,5.92-10.16,7.72s-11.41-4.13-16.94-1.08S70.77,74.33,57.93,78.63s-26.57-7.9-26.57-7.9l4.28-24.41L35.63,46.33z"/>
				<path class="st4" d="M172.19,62.95c0,0-10.52,18.84-24.43,20.64s-35.67-3.95-50.47,4.31s-13.55,15.43-10.88,15.43
					s7.13-12.92,21.93-11.67c14.8,1.26,40.3,9.15,58.85-1.97S172.18,62.95,172.19,62.95L172.19,62.95z"/>
			</g>
		</g>
	</g>
	<g>
		<path class="st5" d="M104.19,47.28c0,0,3.76-2.9,7.42-2.9s7.02,2.64,7.02,2.64s-2.36,2.35-7.07,2.44
			c-4.39,0.09-7.37-2.19-7.37-2.19L104.19,47.28z"/>
		<circle class="st6" cx="111.5" cy="46.87" r="2.06"/>
	</g>
	<g>
		<path class="st7" d="M108.71,98.48c-14.9-1.26-19.38,11.67-22.08,11.67s-3.95-7.18,10.95-15.43c12.87-7.13,30.97-3.82,44.68-3.94
			V23.46H49.52v38.43c0.65,0.13,1.32,0.2,2.02,0.2c0.62,0,1.31-0.09,2.05-0.24c-0.1-0.42-0.15-0.85-0.15-1.3
			c0-3.69,3.52-6.69,7.86-6.69c2.32,0,4.4,0.86,5.84,2.22c1.86-1,3.79-2.07,5.74-3.17c-0.99-1.02-1.58-2.33-1.58-3.76
			c0-3.26,3.11-5.91,6.94-5.91c2.66,0,4.96,1.27,6.13,3.14c1.72-0.96,3.4-1.87,5.03-2.73c-1.23-0.94-2.01-2.29-2.01-3.81
			c0-2.82,2.69-5.11,6-5.11c3.07,0,5.59,1.96,5.95,4.48c1.54-0.49,2.92-0.8,4.07-0.84c10.95-0.36,20.64,4.13,22.61,7.72
			s-3.59,5.92-10.23,7.72c-6.64,1.79-11.49-4.13-17.05-1.08c-5.56,3.05-27.28,21.36-40.2,25.66c-3.02,1.01-6.09,1.1-9.02,0.67v47.96
			h92.75v-24.69c-12.5-0.15-24.86-3.14-33.55-3.88L108.71,98.48z"/>
		<path class="st8" d="M61.3,67.24c4.34,0,7.86-2.99,7.86-6.69c0-1.72-0.77-3.28-2.02-4.46c-5.28,2.83-10.06,5.06-13.54,5.76
			C54.31,64.92,57.49,67.24,61.3,67.24L61.3,67.24z"/>
		<path class="st8" d="M78.23,55.07c3.83,0,6.94-2.64,6.94-5.91c0-1-0.29-1.94-0.81-2.77c-3.76,2.1-7.68,4.37-11.49,6.52
			C74.14,54.22,76.07,55.06,78.23,55.07L78.23,55.07z"/>
		<path class="st8" d="M99.39,39.86c0-0.21-0.02-0.42-0.05-0.63c-2.84,0.91-6.24,2.5-9.95,4.44c1.06,0.81,2.46,1.3,3.99,1.3
			c3.32,0,6-2.29,6-5.11L99.39,39.86z"/>
	</g>
</g>
<g>
	<path class="st4" d="M186.77,88.3c-2.68,0-4.97-0.47-6.87-1.41s-3.33-2.14-4.29-3.6c-0.96-1.46-1.44-2.97-1.44-4.53h5.82
		c0,0.8,0.27,1.54,0.81,2.22s1.31,1.23,2.31,1.65s2.22,0.63,3.66,0.63c2.08,0,3.68-0.37,4.8-1.11c1.12-0.74,1.68-1.67,1.68-2.79
		s-0.36-1.94-1.08-2.58s-1.9-1.1-3.54-1.38l-4.92-0.84c-3-0.52-5.26-1.49-6.78-2.91c-1.52-1.42-2.28-3.33-2.28-5.73
		c0-1.68,0.44-3.2,1.32-4.56s2.22-2.44,4.02-3.24c1.8-0.8,3.96-1.2,6.48-1.2s4.65,0.45,6.51,1.35c1.86,0.9,3.29,2.09,4.29,3.57
		s1.5,3,1.5,4.56h-5.82c0-0.8-0.26-1.54-0.78-2.22s-1.27-1.22-2.25-1.62c-0.98-0.4-2.13-0.6-3.45-0.6c-1.92,0-3.39,0.38-4.41,1.14
		s-1.53,1.7-1.53,2.82c0,0.92,0.34,1.68,1.02,2.28c0.68,0.6,1.8,1.04,3.36,1.32l5.04,0.84c3.12,0.52,5.43,1.52,6.93,3
		s2.25,3.46,2.25,5.94c0,1.68-0.47,3.2-1.41,4.56s-2.33,2.44-4.17,3.24S189.45,88.3,186.77,88.3L186.77,88.3z"/>
	<path class="st4" d="M214.55,88.3c-2.12,0-3.99-0.41-5.61-1.23s-2.88-1.93-3.78-3.33s-1.35-3-1.35-4.8c0-1.96,0.45-3.66,1.35-5.1
		s2.25-2.57,4.05-3.39s4.06-1.23,6.78-1.23h7.68v-0.78c0-1.96-0.57-3.52-1.71-4.68c-1.14-1.16-2.69-1.74-4.65-1.74
		c-1.28,0-2.4,0.2-3.36,0.6c-0.96,0.4-1.71,0.94-2.25,1.62s-0.87,1.4-0.99,2.16h-5.82c0.12-1.64,0.68-3.19,1.68-4.65
		c1-1.46,2.42-2.63,4.26-3.51c1.84-0.88,4-1.32,6.48-1.32s4.65,0.47,6.51,1.41s3.29,2.28,4.29,4.02s1.5,3.77,1.5,6.09V87.7h-5.1
		l-0.6-3.3h-0.3c-0.68,1-1.83,1.9-3.45,2.7S216.67,88.3,214.55,88.3L214.55,88.3z M215.15,83.26c1.76,0,3.29-0.34,4.59-1.02
		s2.28-1.64,2.94-2.88s0.99-2.68,0.99-4.32v-1.08h-7.26c-2.28,0-3.96,0.44-5.04,1.32c-1.08,0.88-1.62,2.02-1.62,3.42
		s0.47,2.46,1.41,3.3C212.1,82.84,213.43,83.26,215.15,83.26L215.15,83.26z"/>
	<path class="st4" d="M237.53,87.7V57.52h5.1l0.6,3.12h0.3c0.76-0.96,1.92-1.82,3.48-2.58s3.36-1.14,5.4-1.14
		c2.28,0,4.33,0.53,6.15,1.59s3.25,2.55,4.29,4.47s1.56,4.12,1.56,6.6V87.7h-5.94V70.06c0-1.44-0.32-2.73-0.96-3.87
		c-0.64-1.14-1.51-2.04-2.61-2.7c-1.1-0.66-2.35-0.99-3.75-0.99s-2.7,0.34-3.9,1.02c-1.2,0.68-2.14,1.6-2.82,2.76
		c-0.68,1.16-1.02,2.42-1.02,3.78V87.7H237.53z"/>
	<path class="st4" d="M284.57,88.3c-2.6,0-4.96-0.66-7.08-1.98s-3.8-3.17-5.04-5.55c-1.24-2.38-1.86-5.11-1.86-8.19
		s0.62-5.75,1.86-8.13c1.24-2.38,2.92-4.23,5.04-5.55s4.48-1.98,7.08-1.98c1.96,0,3.71,0.39,5.25,1.17s2.83,1.83,3.87,3.15h0.3V45.7
		h5.88v42h-5.04l-0.6-3.84h-0.3c-1.12,1.4-2.45,2.49-3.99,3.27C288.4,87.91,286.61,88.3,284.57,88.3z M285.29,82.84
		c1.56,0,3.01-0.43,4.35-1.29s2.4-2.06,3.18-3.6s1.17-3.33,1.17-5.37s-0.39-3.77-1.17-5.31s-1.84-2.74-3.18-3.6
		s-2.79-1.29-4.35-1.29s-3.07,0.43-4.41,1.29s-2.4,2.06-3.18,3.6s-1.17,3.31-1.17,5.31s0.39,3.83,1.17,5.37s1.84,2.74,3.18,3.6
		S283.69,82.84,285.29,82.84z"/>
	<path class="st4" d="M323.81,88.3c-2.04,0-3.83-0.39-5.37-1.17s-2.85-1.87-3.93-3.27h-0.3l-0.6,3.84h-5.1v-42h5.88v15.54h0.3
		c1.08-1.32,2.38-2.37,3.9-3.15c1.52-0.78,3.26-1.17,5.22-1.17c2.6,0,4.96,0.66,7.08,1.98s3.8,3.17,5.04,5.55
		c1.24,2.38,1.86,5.09,1.86,8.13s-0.62,5.81-1.86,8.19c-1.24,2.38-2.92,4.23-5.04,5.55S326.41,88.3,323.81,88.3z M323.15,82.84
		c1.56,0,3.01-0.43,4.35-1.29s2.4-2.06,3.18-3.6s1.17-3.33,1.17-5.37s-0.39-3.77-1.17-5.31s-1.84-2.74-3.18-3.6
		s-2.79-1.29-4.35-1.29s-3.06,0.43-4.38,1.29s-2.38,2.06-3.18,3.6s-1.2,3.31-1.2,5.31s0.4,3.83,1.2,5.37
		c0.8,1.54,1.86,2.74,3.18,3.6S321.55,82.84,323.15,82.84z"/>
	<path class="st4" d="M357.29,88.3c-2.8,0-5.34-0.67-7.62-2.01c-2.28-1.34-4.07-3.2-5.37-5.58c-1.3-2.38-1.95-5.09-1.95-8.13
		s0.65-5.69,1.95-8.07c1.3-2.38,3.09-4.24,5.37-5.58c2.28-1.34,4.82-2.01,7.62-2.01s5.28,0.67,7.56,2.01s4.07,3.2,5.37,5.58
		c1.3,2.38,1.95,5.07,1.95,8.07s-0.65,5.75-1.95,8.13c-1.3,2.38-3.09,4.24-5.37,5.58C362.57,87.63,360.05,88.3,357.29,88.3z
		 M357.29,82.84c1.64,0,3.15-0.42,4.53-1.26c1.38-0.84,2.47-2.04,3.27-3.6s1.2-3.36,1.2-5.4s-0.4-3.78-1.2-5.34s-1.89-2.76-3.27-3.6
		s-2.89-1.26-4.53-1.26s-3.15,0.42-4.53,1.26c-1.38,0.84-2.47,2.04-3.27,3.6s-1.2,3.34-1.2,5.34s0.4,3.84,1.2,5.4
		c0.8,1.56,1.89,2.76,3.27,3.6C354.14,82.42,355.65,82.84,357.29,82.84z"/>
	<path class="st4" d="M373.55,87.7l10.2-15.42l-9.78-14.76h6.78l6.84,10.56h1.2l6.78-10.56h6.84l-9.84,14.76l10.2,15.42h-6.84
		l-7.14-11.16h-1.2l-7.2,11.16H373.55z"/>
	<path class="st4" d="M404.57,73.36v-5.52h19.68v5.52H404.57z"/>
	<path class="st4" d="M444.17,88.3c-2.8,0-5.33-0.67-7.59-2.01c-2.26-1.34-4.05-3.2-5.37-5.58c-1.32-2.38-1.98-5.09-1.98-8.13
		s0.66-5.69,1.98-8.07c1.32-2.38,3.11-4.24,5.37-5.58c2.26-1.34,4.79-2.01,7.59-2.01c2.44,0,4.62,0.47,6.54,1.41s3.5,2.24,4.74,3.9
		s2.08,3.53,2.52,5.61h-5.94c-0.52-1.68-1.46-3.01-2.82-3.99c-1.36-0.98-3.04-1.47-5.04-1.47c-1.64,0-3.15,0.42-4.53,1.26
		c-1.38,0.84-2.47,2.04-3.27,3.6s-1.2,3.34-1.2,5.34s0.4,3.84,1.2,5.4c0.8,1.56,1.89,2.76,3.27,3.6c1.38,0.84,2.89,1.26,4.53,1.26
		c2.04,0,3.73-0.5,5.07-1.5s2.27-2.4,2.79-4.2h5.94c-0.44,2.16-1.28,4.08-2.52,5.76s-2.82,3-4.74,3.96S446.61,88.3,444.17,88.3z"/>
	<path class="st4" d="M464.33,87.7v-42h5.88v42H464.33z"/>
	<path class="st4" d="M478.31,51.22v-5.94h6.42v5.94H478.31z M478.55,87.7V57.52h5.88V87.7H478.55z"/>
</g>
</svg>
