<?xml version="1.0" encoding="utf-8"?>
<!-- Generator: Adobe Illustrator 27.4.1, SVG Export Plug-In . SVG Version: 6.00 Build 0)  -->
<svg version="1.1" id="Layer_1" xmlns="http://www.w3.org/2000/svg" xmlns:xlink="http://www.w3.org/1999/xlink" x="0px" y="0px"
	 viewBox="0 0 300 300" style="enable-background:new 0 0 300 300;" xml:space="preserve">
<style type="text/css">
	.st0{fill:#FF0000;}
	.st1{fill-rule:evenodd;clip-rule:evenodd;fill:#FFFFFF;}
	.st2{fill:#85DDFF;}
	.st3{clip-path:url(#SVGID_00000056409298774602557920000002187918530410092185_);}
	.st4{fill:#009FE3;}
	.st5{fill:#FFFFFF;}
	.st6{fill:#1D1D1B;}
	.st7{fill:none;}
	.st8{fill:#1DC5FF;}
	.st9{clip-path:url(#SVGID_00000079444983525320363710000017726094424808084410_);}
	.st10{fill:#36A9E1;}
</style>
<g>
	<g id="XMLID_00000137095350533835815650000003466306646797238693_">
		<g id="XMLID_00000160167884466530392370000012336008017886385282_">
			<path class="st0" d="M-0.03,239.16c0,26.26,0,40.88,9.54,50.42c9.54,9.54,24.16,9.54,50.42,9.54h179.87
				c26.26,0,40.88,0,50.42-9.54c9.54-9.54,9.54-24.13,9.54-50.42V59.29c0-26.26,0-40.88-9.54-50.42
				c-9.54-9.54-24.16-9.54-50.42-9.54H59.92c-26.26,0-40.88,0-50.42,9.54s-9.54,24.16-9.54,50.42V239.16z"/>
			<path id="XMLID_00000047767254252987933590000012039059147552122754_" class="st1" d="M175.68,175.06
				c-14.27,14.27-37.39,14.27-51.66,0s-14.27-37.39,0-51.66s37.39-14.27,51.66,0S189.96,160.79,175.68,175.06 M256.41,122.6
				l-79.92-79.92c-11.67-11.67-18.16-18.16-26.63-18.16s-14.97,6.5-26.63,18.16L43.3,122.6c-11.67,11.67-18.16,18.16-18.16,26.63
				s6.5,14.97,18.16,26.63l79.9,79.9c11.67,11.67,18.16,18.16,26.63,18.16s14.97-6.5,26.63-18.16l79.9-79.9
				c11.67-11.67,18.16-18.16,18.16-26.63C274.57,140.76,268.07,134.26,256.41,122.6z"/>
		</g>
	</g>
	<g>
		<path class="st2" d="M236.26,66.42c-4.93,0-7.81-2.64-7.99-2.8l2.22-2.36l-1.11,1.18l1.1-1.19c0.2,0.18,4.93,4.35,12.94-0.22
			l1.61,2.82C241.66,65.77,238.7,66.42,236.26,66.42z"/>
	</g>
	<g>
		<path class="st2" d="M241.38,70.55c-0.13-0.23-3.23-5.73-12.3-4.03l-0.6-3.19c11.51-2.17,15.59,5.38,15.76,5.7l-2.87,1.5
			l1.44-0.75L241.38,70.55z"/>
	</g>
	<g>
		<defs>
			<rect id="SVGID_00000036238691716002885260000017905457584941059732_" x="0.45" y="-25.27" width="298.91" height="336.02"/>
		</defs>
		<clipPath id="SVGID_00000111885315824706519060000010396333740700872331_">
			<use xlink:href="#SVGID_00000036238691716002885260000017905457584941059732_"  style="overflow:visible;"/>
		</clipPath>
		<g style="clip-path:url(#SVGID_00000111885315824706519060000010396333740700872331_);">
			<g>
				<g>
					<path class="st4" d="M-57.83,58.27c2.31,2.33,15.62,51.81,49.74,51.81S123.8,34.4,159.08,33.24
						c35.28-1.16,66.52,13.39,72.88,25.03s-11.57,19.21-32.97,25.03s-37.02-13.39-54.95-3.49s-87.92,69.28-129.57,83.25
						s-86.19-25.61-86.19-25.61L-57.83,58.27z"/>
				</g>
			</g>
			<g>
				<path class="st4" d="M385.1,112.18c0,0-34.13,61.13-79.24,66.95c-45.12,5.82-115.69-12.81-163.7,13.97s-43.96,50.07-35.28,50.07
					s23.14-41.91,71.15-37.84c48.01,4.08,130.72,29.69,190.88-6.4S385.1,112.18,385.1,112.18z"/>
			</g>
		</g>
	</g>
	<g>
		<g>
			<path class="st5" d="M164.56,61.35c0,0,12.2-9.4,24.08-9.4s22.76,8.58,22.76,8.58s-7.67,7.61-22.93,7.92
				C174.25,68.72,164.56,61.35,164.56,61.35z"/>
		</g>
		<g>
			<circle class="st6" cx="188.26" cy="60.03" r="6.68"/>
		</g>
	</g>
	<g>
		<g>
			<path class="st7" d="M179.2,227.42c-48.32-4.07-62.87,37.84-71.6,37.84c-8.73,0-12.81-23.29,35.51-50.07
				c41.75-23.14,100.45-12.38,144.93-12.79V-15.93H-12.8v124.65c2.1,0.41,4.29,0.64,6.57,0.64c2,0,4.24-0.28,6.65-0.76
				c-0.31-1.36-0.49-2.77-0.49-4.21c0-11.98,11.41-21.69,25.48-21.69c7.52,0,14.27,2.79,18.93,7.21c6.04-3.23,12.28-6.7,18.61-10.28
				c-3.21-3.31-5.14-7.56-5.14-12.18c0-10.58,10.08-19.16,22.51-19.16c8.62,0,16.1,4.13,19.88,10.18c5.57-3.1,11.03-6.08,16.32-8.84
				c-4-3.04-6.53-7.44-6.53-12.36c0-9.15,8.72-16.58,19.47-16.58c9.95,0,18.14,6.35,19.31,14.55c4.99-1.6,9.47-2.59,13.21-2.72
				c35.51-1.16,66.95,13.39,73.35,25.03c6.4,11.64-11.64,19.21-33.18,25.03c-21.54,5.82-37.26-13.39-55.3-3.49
				c-18.05,9.9-88.49,69.28-130.4,83.25c-9.8,3.27-19.76,3.58-29.27,2.18V320.1h300.84V240C247.5,239.5,207.4,229.8,179.2,227.42z"
				/>
		</g>
		<g>
			<path class="st8" d="M25.42,126.08c14.07,0,25.48-9.71,25.48-21.69c0-5.57-2.49-10.64-6.55-14.48
				c-17.14,9.18-32.64,16.42-43.93,18.69C2.73,118.56,13.04,126.08,25.42,126.08z"/>
		</g>
		<g>
			<path class="st8" d="M80.34,86.61c12.43,0,22.51-8.58,22.51-19.16c0-3.25-0.96-6.3-2.63-8.98c-12.21,6.81-24.9,14.18-37.26,21.16
				C67.09,83.89,73.35,86.61,80.34,86.61z"/>
		</g>
		<g>
			<path class="st8" d="M148.97,37.27c0-0.69-0.06-1.36-0.16-2.03c-9.2,2.95-20.25,8.1-32.26,14.39c3.44,2.61,7.97,4.22,12.95,4.22
				C140.25,53.84,148.97,46.42,148.97,37.27z"/>
		</g>
	</g>
</g>
</svg>
