<?xml version="1.0" encoding="UTF-8"?>
<svg id="Layer_1" data-name="Layer 1" xmlns="http://www.w3.org/2000/svg" viewBox="0 0 300 100.47">
  <defs>
    <style>
      .cls-1 {
        fill: #fff;
      }

      .cls-2 {
        fill: #36a9e1;
      }

      .cls-3 {
        fill: #009fe3;
      }

      .cls-4 {
        fill: #1dc5ff;
      }

      .cls-5 {
        fill: #1d1d1b;
      }
    </style>
  </defs>
  <path class="cls-3" d="m11.72,47.89c.95-5.68,23.93-12.06,30.14-7.06,3.12,2.51,1.48,8.41,7.4,4.26,5.91-4.15,24.1-19.87,44.03-16.14,19.93,3.74,41.4,35.71,63.89,29.15,22.49-6.56,38.08-30.11,61.53-29.38,22.7.7,30.41,27.44,75.2,13.77,1.13-.35,1.93,1.08,1.04,1.87-11.33,10.01-38.7,11.87-48.53,6.23-34.88-20-48.67,6.28-73.27,20.07-24.6,13.79-44.41,1.63-58.16-9.12-13.74-10.75-27.05-25.19-37.93-18.36s-18.82,13.23-29.97,15.24c-.99.18-1.97.48-2.77,1.09-5.71,4.37-9.27,6.77-14.03,5.09-7.47-2.63-19.44-11.54-18.57-16.7Z"/>
  <g>
    <path class="cls-1" d="m20.63,56.02s4.6-1.19,7.97.24,5.42,5.18,5.42,5.18c0,0-3.1,1.23-7.46-.52-4.07-1.64-5.93-4.9-5.93-4.9Z"/>
    <circle class="cls-5" cx="27.52" cy="58.51" r="2.06"/>
  </g>
  <g>
    <path class="cls-1" d="m20.77,45.59s3.03-3.66,6.6-4.47,7.43,1.03,7.43,1.03c0,0-1.79,2.81-6.35,3.94-4.26,1.05-7.67-.5-7.67-.5Z"/>
    <circle class="cls-5" cx="27.8" cy="43.58" r="2.06"/>
  </g>
  <circle class="cls-4" cx="51.08" cy="51.01" r="2.92"/>
  <circle class="cls-4" cx="99.56" cy="41.59" r="2.92"/>
  <circle class="cls-4" cx="220" cy="36.56" r="2.92"/>
  <circle class="cls-4" cx="171.73" cy="62.81" r="2.92"/>
  <circle class="cls-4" cx="61.12" cy="44.78" r="4.39"/>
  <circle class="cls-4" cx="182.03" cy="54.63" r="4.39"/>
  <circle class="cls-4" cx="87.71" cy="35.38" r="4.39"/>
  <circle class="cls-4" cx="207.3" cy="38.27" r="4.39"/>
  <circle class="cls-4" cx="72.4" cy="37.84" r="5.2"/>
  <circle class="cls-4" cx="194.1" cy="45.1" r="5.2"/>
  <rect class="cls-2" x="220.23" y="71.46" width="1.32" height="6.1" rx=".66" ry=".66" transform="translate(441.79 149.02) rotate(-180)"/>
  <rect class="cls-2" x="220.23" y="61.97" width="1.32" height="6.1" rx=".66" ry=".66" transform="translate(441.79 130.04) rotate(180)"/>
  <rect class="cls-2" x="215.54" y="66.88" width="1.32" height="6.1" rx=".66" ry=".66" transform="translate(146.26 286.13) rotate(-90)"/>
  <rect class="cls-2" x="225.03" y="66.88" width="1.32" height="6.1" rx=".66" ry=".66" transform="translate(155.76 295.62) rotate(-90)"/>
  <rect class="cls-2" x="148.18" y="36.63" width=".91" height="4.22" rx=".46" ry=".46" transform="translate(297.28 77.48) rotate(-180)"/>
  <rect class="cls-2" x="148.18" y="30.07" width=".91" height="4.22" rx=".46" ry=".46" transform="translate(297.28 64.36) rotate(-180)"/>
  <rect class="cls-2" x="144.94" y="33.47" width=".91" height="4.22" rx=".46" ry=".46" transform="translate(109.82 180.97) rotate(-90)"/>
  <rect class="cls-2" x="151.5" y="33.47" width=".91" height="4.22" rx=".46" ry=".46" transform="translate(116.38 187.53) rotate(-90)"/>
  <rect class="cls-2" x="81.66" y="64" width="1.32" height="6.1" rx=".66" ry=".66" transform="translate(164.63 134.1) rotate(180)"/>
  <rect class="cls-2" x="81.66" y="54.51" width="1.32" height="6.1" rx=".66" ry=".66" transform="translate(164.63 115.12) rotate(-180)"/>
  <rect class="cls-2" x="76.96" y="59.43" width="1.32" height="6.1" rx=".66" ry=".66" transform="translate(15.15 140.1) rotate(-90)"/>
  <rect class="cls-2" x="86.45" y="59.43" width="1.32" height="6.1" rx=".66" ry=".66" transform="translate(24.64 149.59) rotate(-90)"/>
</svg>